<svg width="56" height="54" viewBox="0 0 56 54" fill="none" xmlns="http://www.w3.org/2000/svg">
<path d="M5.66137 2C6.5547 2 7.2547 2.21333 7.76137 2.64C8.26803 3.06667 8.52137 3.65333 8.52137 4.4C8.52137 5.14667 8.26803 5.73333 7.76137 6.16C7.2547 6.58 6.5547 6.79 5.66137 6.79H3.78137V9H3.04137V2H5.66137ZM5.64137 6.14C6.3347 6.14 6.8647 5.99 7.23137 5.69C7.59803 5.38333 7.78137 4.95333 7.78137 4.4C7.78137 3.83333 7.59803 3.4 7.23137 3.1C6.8647 2.79333 6.3347 2.64 5.64137 2.64H3.78137V6.14H5.64137ZM12.2914 5.71L10.8614 7.16V9H10.1214V2H10.8614V6.23L14.9714 2H15.8214L12.7914 5.17L16.0314 9H15.1514L12.2914 5.71ZM18.7461 2V9H18.0261V2.64H16.3761V2H18.7461ZM22.5994 1.94C23.5261 1.94 24.2361 2.24667 24.7294 2.86C25.2227 3.46667 25.4694 4.32667 25.4694 5.44C25.4694 6.22 25.3361 6.88 25.0694 7.42C24.8027 7.96 24.4294 8.37 23.9494 8.65C23.4694 8.92333 22.9094 9.06 22.2694 9.06C21.5761 9.06 21.0227 8.93333 20.6094 8.68L20.8994 8.1C21.2327 8.32 21.6861 8.43 22.2594 8.43C23.0327 8.43 23.6394 8.18667 24.0794 7.7C24.5194 7.20667 24.7394 6.49333 24.7394 5.56C24.7394 5.38667 24.7294 5.19667 24.7094 4.99C24.5361 5.37 24.2594 5.66667 23.8794 5.88C23.4994 6.08667 23.0627 6.19 22.5694 6.19C22.1094 6.19 21.6994 6.10333 21.3394 5.93C20.9861 5.75667 20.7094 5.51333 20.5094 5.2C20.3094 4.88 20.2094 4.51 20.2094 4.09C20.2094 3.66333 20.3127 3.28667 20.5194 2.96C20.7261 2.63333 21.0094 2.38333 21.3694 2.21C21.7361 2.03 22.1461 1.94 22.5994 1.94ZM22.6794 5.58C23.0327 5.58 23.3427 5.51333 23.6094 5.38C23.8827 5.24667 24.0961 5.06333 24.2494 4.83C24.4027 4.59667 24.4794 4.33667 24.4794 4.05C24.4794 3.78333 24.4061 3.53667 24.2594 3.31C24.1194 3.08333 23.9094 2.9 23.6294 2.76C23.3494 2.62 23.0161 2.55 22.6294 2.55C22.1227 2.55 21.7094 2.69 21.3894 2.97C21.0761 3.24333 20.9194 3.61 20.9194 4.07C20.9194 4.53 21.0761 4.89667 21.3894 5.17C21.7094 5.44333 22.1394 5.58 22.6794 5.58ZM32.4632 7.16H31.0632V9H30.3432V7.16H26.3932V6.64L30.1032 2H30.9032L27.3232 6.52H30.3632V4.9H31.0632V6.52H32.4632V7.16ZM33.3021 5.98H35.9221V6.6H33.3021V5.98ZM41.904 7.13H38.004L37.164 9H36.394L39.594 2H40.324L43.524 9H42.744L41.904 7.13ZM41.634 6.53L39.954 2.77L38.274 6.53H41.634ZM49.092 5.39C49.552 5.49 49.9053 5.69 50.152 5.99C50.4053 6.28333 50.532 6.66333 50.532 7.13C50.532 7.73 50.3087 8.19333 49.862 8.52C49.422 8.84 48.7687 9 47.902 9H44.682V2H47.702C48.482 2 49.0853 2.15667 49.512 2.47C49.9453 2.78333 50.162 3.22667 50.162 3.8C50.162 4.18667 50.0653 4.51667 49.872 4.79C49.6853 5.05667 49.4253 5.25667 49.092 5.39ZM45.422 2.61V5.15H47.652C48.2187 5.15 48.6553 5.04333 48.962 4.83C49.2687 4.61 49.422 4.29333 49.422 3.88C49.422 3.46667 49.2687 3.15333 48.962 2.94C48.6553 2.72 48.2187 2.61 47.652 2.61H45.422ZM47.892 8.39C48.5187 8.39 48.992 8.28333 49.312 8.07C49.632 7.85667 49.792 7.52333 49.792 7.07C49.792 6.19667 49.1587 5.76 47.892 5.76H45.422V8.39H47.892ZM52.2211 2H52.9611V9H52.2211V2Z" fill="#4B6397"/>
<path d="M2.73334 23.048C2.31734 23.048 1.91734 22.9813 1.53334 22.848C1.15468 22.7147 0.861344 22.5387 0.653344 22.32L0.885344 21.864C1.08801 22.0667 1.35734 22.232 1.69334 22.36C2.02934 22.4827 2.37601 22.544 2.73334 22.544C3.23468 22.544 3.61068 22.4533 3.86134 22.272C4.11201 22.0853 4.23734 21.8453 4.23734 21.552C4.23734 21.328 4.16801 21.1493 4.02934 21.016C3.89601 20.8827 3.73068 20.7813 3.53334 20.712C3.33601 20.6373 3.06134 20.5573 2.70934 20.472C2.28801 20.3653 1.95201 20.264 1.70134 20.168C1.45068 20.0667 1.23468 19.9147 1.05334 19.712C0.877344 19.5093 0.789344 19.2347 0.789344 18.888C0.789344 18.6053 0.86401 18.3493 1.01334 18.12C1.16268 17.8853 1.39201 17.6987 1.70134 17.56C2.01068 17.4213 2.39468 17.352 2.85334 17.352C3.17334 17.352 3.48534 17.3973 3.78934 17.488C4.09868 17.5733 4.36534 17.6933 4.58934 17.848L4.38934 18.32C4.15468 18.1653 3.90401 18.0507 3.63734 17.976C3.37068 17.896 3.10934 17.856 2.85334 17.856C2.36268 17.856 1.99201 17.952 1.74134 18.144C1.49601 18.3307 1.37334 18.5733 1.37334 18.872C1.37334 19.096 1.44001 19.2773 1.57334 19.416C1.71201 19.5493 1.88268 19.6533 2.08534 19.728C2.29334 19.7973 2.57068 19.8747 2.91734 19.96C3.32801 20.0613 3.65868 20.1627 3.90934 20.264C4.16534 20.36 4.38134 20.5093 4.55734 20.712C4.73334 20.9093 4.82134 21.1787 4.82134 21.52C4.82134 21.8027 4.74401 22.0613 4.58934 22.296C4.44001 22.5253 4.20801 22.7093 3.89334 22.848C3.57868 22.9813 3.19201 23.048 2.73334 23.048ZM7.46322 18.76C8.01255 18.76 8.43389 18.8987 8.72722 19.176C9.02055 19.448 9.16722 19.8533 9.16722 20.392V23H8.62322V22.344C8.49522 22.5627 8.30589 22.7333 8.05522 22.856C7.80989 22.9787 7.51655 23.04 7.17522 23.04C6.70589 23.04 6.33255 22.928 6.05522 22.704C5.77789 22.48 5.63922 22.184 5.63922 21.816C5.63922 21.4587 5.76722 21.1707 6.02322 20.952C6.28455 20.7333 6.69789 20.624 7.26322 20.624H8.59922V20.368C8.59922 20.0053 8.49789 19.7307 8.29522 19.544C8.09255 19.352 7.79655 19.256 7.40722 19.256C7.14055 19.256 6.88455 19.3013 6.63922 19.392C6.39389 19.4773 6.18322 19.5973 6.00722 19.752L5.75122 19.328C5.96455 19.1467 6.22055 19.008 6.51922 18.912C6.81789 18.8107 7.13255 18.76 7.46322 18.76ZM7.26322 22.592C7.58322 22.592 7.85789 22.52 8.08722 22.376C8.31655 22.2267 8.48722 22.0133 8.59922 21.736V21.048H7.27922C6.55922 21.048 6.19922 21.2987 6.19922 21.8C6.19922 22.0453 6.29255 22.24 6.47922 22.384C6.66589 22.5227 6.92722 22.592 7.26322 22.592ZM12.854 18.76C13.382 18.76 13.8006 18.9147 14.11 19.224C14.4246 19.528 14.582 19.9733 14.582 20.56V23H14.014V20.616C14.014 20.1787 13.9046 19.8453 13.686 19.616C13.4673 19.3867 13.1553 19.272 12.75 19.272C12.2966 19.272 11.9366 19.408 11.67 19.68C11.4086 19.9467 11.278 20.3173 11.278 20.792V23H10.71V18.792H11.254V19.568C11.4086 19.312 11.622 19.1147 11.894 18.976C12.1713 18.832 12.4913 18.76 12.854 18.76ZM18.9298 17.912V20.112H21.8258V20.624H18.9298V23H18.3378V17.4H22.1778V17.912H18.9298ZM23.7462 19.616C23.8795 19.3333 24.0768 19.12 24.3382 18.976C24.6048 18.832 24.9328 18.76 25.3222 18.76V19.312L25.1862 19.304C24.7435 19.304 24.3968 19.44 24.1462 19.712C23.8955 19.984 23.7702 20.3653 23.7702 20.856V23H23.2022V18.792H23.7462V19.616ZM27.8148 18.76C28.3641 18.76 28.7854 18.8987 29.0788 19.176C29.3721 19.448 29.5188 19.8533 29.5188 20.392V23H28.9748V22.344C28.8468 22.5627 28.6574 22.7333 28.4068 22.856C28.1614 22.9787 27.8681 23.04 27.5268 23.04C27.0574 23.04 26.6841 22.928 26.4068 22.704C26.1294 22.48 25.9908 22.184 25.9908 21.816C25.9908 21.4587 26.1188 21.1707 26.3748 20.952C26.6361 20.7333 27.0494 20.624 27.6148 20.624H28.9508V20.368C28.9508 20.0053 28.8494 19.7307 28.6468 19.544C28.4441 19.352 28.1481 19.256 27.7588 19.256C27.4921 19.256 27.2361 19.3013 26.9908 19.392C26.7454 19.4773 26.5348 19.5973 26.3588 19.752L26.1028 19.328C26.3161 19.1467 26.5721 19.008 26.8708 18.912C27.1694 18.8107 27.4841 18.76 27.8148 18.76ZM27.6148 22.592C27.9348 22.592 28.2094 22.52 28.4388 22.376C28.6681 22.2267 28.8388 22.0133 28.9508 21.736V21.048H27.6308C26.9108 21.048 26.5508 21.2987 26.5508 21.8C26.5508 22.0453 26.6441 22.24 26.8308 22.384C27.0174 22.5227 27.2788 22.592 27.6148 22.592ZM33.2055 18.76C33.7335 18.76 34.1522 18.9147 34.4615 19.224C34.7762 19.528 34.9335 19.9733 34.9335 20.56V23H34.3655V20.616C34.3655 20.1787 34.2562 19.8453 34.0375 19.616C33.8189 19.3867 33.5069 19.272 33.1015 19.272C32.6482 19.272 32.2882 19.408 32.0215 19.68C31.7602 19.9467 31.6295 20.3173 31.6295 20.792V23H31.0615V18.792H31.6055V19.568C31.7602 19.312 31.9735 19.1147 32.2455 18.976C32.5229 18.832 32.8429 18.76 33.2055 18.76ZM38.2352 23.04C37.8192 23.04 37.4459 22.9493 37.1152 22.768C36.7899 22.5867 36.5339 22.3333 36.3472 22.008C36.1606 21.6773 36.0672 21.3067 36.0672 20.896C36.0672 20.4853 36.1606 20.1173 36.3472 19.792C36.5339 19.4667 36.7899 19.2133 37.1152 19.032C37.4459 18.8507 37.8192 18.76 38.2352 18.76C38.5979 18.76 38.9206 18.832 39.2032 18.976C39.4912 19.1147 39.7179 19.32 39.8832 19.592L39.4592 19.88C39.3206 19.672 39.1446 19.5173 38.9312 19.416C38.7179 19.3093 38.4859 19.256 38.2352 19.256C37.9312 19.256 37.6566 19.3253 37.4112 19.464C37.1712 19.5973 36.9819 19.7893 36.8432 20.04C36.7099 20.2907 36.6432 20.576 36.6432 20.896C36.6432 21.2213 36.7099 21.5093 36.8432 21.76C36.9819 22.0053 37.1712 22.1973 37.4112 22.336C37.6566 22.4693 37.9312 22.536 38.2352 22.536C38.4859 22.536 38.7179 22.4853 38.9312 22.384C39.1446 22.2827 39.3206 22.128 39.4592 21.92L39.8832 22.208C39.7179 22.48 39.4912 22.688 39.2032 22.832C38.9152 22.9707 38.5926 23.04 38.2352 23.04ZM40.999 18.792H41.567V23H40.999V18.792ZM41.287 17.872C41.1697 17.872 41.071 17.832 40.991 17.752C40.911 17.672 40.871 17.576 40.871 17.464C40.871 17.3573 40.911 17.264 40.991 17.184C41.071 17.104 41.1697 17.064 41.287 17.064C41.4044 17.064 41.503 17.104 41.583 17.184C41.663 17.2587 41.703 17.3493 41.703 17.456C41.703 17.5733 41.663 17.672 41.583 17.752C41.503 17.832 41.4044 17.872 41.287 17.872ZM44.2755 23.04C43.9341 23.04 43.6061 22.992 43.2915 22.896C42.9821 22.7947 42.7395 22.6693 42.5635 22.52L42.8195 22.072C42.9955 22.2107 43.2168 22.3253 43.4835 22.416C43.7501 22.5013 44.0275 22.544 44.3155 22.544C44.6995 22.544 44.9821 22.4853 45.1635 22.368C45.3501 22.2453 45.4435 22.0747 45.4435 21.856C45.4435 21.7013 45.3928 21.5813 45.2915 21.496C45.1901 21.4053 45.0621 21.3387 44.9075 21.296C44.7528 21.248 44.5475 21.2027 44.2915 21.16C43.9501 21.096 43.6755 21.032 43.4675 20.968C43.2595 20.8987 43.0808 20.784 42.9315 20.624C42.7875 20.464 42.7155 20.2427 42.7155 19.96C42.7155 19.608 42.8621 19.32 43.1555 19.096C43.4488 18.872 43.8568 18.76 44.3795 18.76C44.6515 18.76 44.9235 18.7973 45.1955 18.872C45.4675 18.9413 45.6915 19.0347 45.8675 19.152L45.6195 19.608C45.2728 19.368 44.8595 19.248 44.3795 19.248C44.0168 19.248 43.7421 19.312 43.5555 19.44C43.3741 19.568 43.2835 19.736 43.2835 19.944C43.2835 20.104 43.3341 20.232 43.4355 20.328C43.5421 20.424 43.6728 20.496 43.8275 20.544C43.9821 20.5867 44.1955 20.632 44.4675 20.68C44.8035 20.744 45.0728 20.808 45.2755 20.872C45.4781 20.936 45.6515 21.0453 45.7955 21.2C45.9395 21.3547 46.0115 21.568 46.0115 21.84C46.0115 22.208 45.8568 22.5013 45.5475 22.72C45.2435 22.9333 44.8195 23.04 44.2755 23.04ZM48.8055 23.04C48.3895 23.04 48.0162 22.9493 47.6855 22.768C47.3602 22.5867 47.1042 22.3333 46.9175 22.008C46.7309 21.6773 46.6375 21.3067 46.6375 20.896C46.6375 20.4853 46.7309 20.1173 46.9175 19.792C47.1042 19.4667 47.3602 19.2133 47.6855 19.032C48.0162 18.8507 48.3895 18.76 48.8055 18.76C49.1682 18.76 49.4909 18.832 49.7735 18.976C50.0615 19.1147 50.2882 19.32 50.4535 19.592L50.0295 19.88C49.8909 19.672 49.7149 19.5173 49.5015 19.416C49.2882 19.3093 49.0562 19.256 48.8055 19.256C48.5015 19.256 48.2269 19.3253 47.9815 19.464C47.7415 19.5973 47.5522 19.7893 47.4135 20.04C47.2802 20.2907 47.2135 20.576 47.2135 20.896C47.2135 21.2213 47.2802 21.5093 47.4135 21.76C47.5522 22.0053 47.7415 22.1973 47.9815 22.336C48.2269 22.4693 48.5015 22.536 48.8055 22.536C49.0562 22.536 49.2882 22.4853 49.5015 22.384C49.7149 22.2827 49.8909 22.128 50.0295 21.92L50.4535 22.208C50.2882 22.48 50.0615 22.688 49.7735 22.832C49.4855 22.9707 49.1629 23.04 48.8055 23.04ZM53.219 23.04C52.8137 23.04 52.4484 22.9493 52.123 22.768C51.7977 22.5813 51.5417 22.3253 51.355 22C51.1684 21.6747 51.075 21.3067 51.075 20.896C51.075 20.4853 51.1684 20.1173 51.355 19.792C51.5417 19.4667 51.7977 19.2133 52.123 19.032C52.4484 18.8507 52.8137 18.76 53.219 18.76C53.6244 18.76 53.9897 18.8507 54.315 19.032C54.6404 19.2133 54.8937 19.4667 55.075 19.792C55.2617 20.1173 55.355 20.4853 55.355 20.896C55.355 21.3067 55.2617 21.6747 55.075 22C54.8937 22.3253 54.6404 22.5813 54.315 22.768C53.9897 22.9493 53.6244 23.04 53.219 23.04ZM53.219 22.536C53.5177 22.536 53.7844 22.4693 54.019 22.336C54.259 22.1973 54.4457 22.0027 54.579 21.752C54.7124 21.5013 54.779 21.216 54.779 20.896C54.779 20.576 54.7124 20.2907 54.579 20.04C54.4457 19.7893 54.259 19.5973 54.019 19.464C53.7844 19.3253 53.5177 19.256 53.219 19.256C52.9204 19.256 52.651 19.3253 52.411 19.464C52.1764 19.5973 51.9897 19.7893 51.851 20.04C51.7177 20.2907 51.651 20.576 51.651 20.896C51.651 21.216 51.7177 21.5013 51.851 21.752C51.9897 22.0027 52.1764 22.1973 52.411 22.336C52.651 22.4693 52.9204 22.536 53.219 22.536Z" fill="#4B6397"/>
<path d="M32.5 39.4L23.5 34.21" stroke="white" stroke-width="2" stroke-linecap="round" stroke-linejoin="round"/>
<path d="M37 46V38C36.9996 37.6493 36.9071 37.3048 36.7315 37.0012C36.556 36.6975 36.3037 36.4454 36 36.27L29 32.27C28.696 32.0945 28.3511 32.0021 28 32.0021C27.6489 32.0021 27.304 32.0945 27 32.27L20 36.27C19.6963 36.4454 19.444 36.6975 19.2685 37.0012C19.0929 37.3048 19.0004 37.6493 19 38V46C19.0004 46.3507 19.0929 46.6952 19.2685 46.9988C19.444 47.3025 19.6963 47.5546 20 47.73L27 51.73C27.304 51.9055 27.6489 51.998 28 51.998C28.3511 51.998 28.696 51.9055 29 51.73L36 47.73C36.3037 47.5546 36.556 47.3025 36.7315 46.9988C36.9071 46.6952 36.9996 46.3507 37 46Z" stroke="white" stroke-width="2" stroke-linecap="round" stroke-linejoin="round"/>
<path d="M19.27 36.96L28 42.01L36.73 36.96" stroke="white" stroke-width="2" stroke-linecap="round" stroke-linejoin="round"/>
<path d="M28 52.08V42" stroke="white" stroke-width="2" stroke-linecap="round" stroke-linejoin="round"/>
</svg>
