<svg width="58" height="54" viewBox="0 0 58 54" fill="none" xmlns="http://www.w3.org/2000/svg">
<path d="M3.88305 2C4.77638 2 5.47638 2.21333 5.98305 2.64C6.48971 3.06667 6.74305 3.65333 6.74305 4.4C6.74305 5.14667 6.48971 5.73333 5.98305 6.16C5.47638 6.58 4.77638 6.79 3.88305 6.79H2.00305V9H1.26305V2H3.88305ZM3.86305 6.14C4.55638 6.14 5.08638 5.99 5.45305 5.69C5.81971 5.38333 6.00305 4.95333 6.00305 4.4C6.00305 3.83333 5.81971 3.4 5.45305 3.1C5.08638 2.79333 4.55638 2.64 3.86305 2.64H2.00305V6.14H3.86305ZM10.5131 5.71L9.08313 7.16V9H8.34313V2H9.08313V6.23L13.1931 2H14.0431L11.0131 5.17L14.2531 9H13.3731L10.5131 5.71ZM16.9678 2V9H16.2478V2.64H14.5978V2H16.9678ZM22.6511 5.33C23.0911 5.47667 23.4278 5.69667 23.6611 5.99C23.9011 6.28333 24.0211 6.63667 24.0211 7.05C24.0211 7.45667 23.9111 7.81333 23.6911 8.12C23.4711 8.42 23.1544 8.65333 22.7411 8.82C22.3344 8.98 21.8544 9.06 21.3011 9.06C20.4611 9.06 19.8011 8.88 19.3211 8.52C18.8411 8.16 18.6011 7.67 18.6011 7.05C18.6011 6.63 18.7144 6.27667 18.9411 5.99C19.1744 5.69667 19.5111 5.47667 19.9511 5.33C19.5911 5.19 19.3178 4.99 19.1311 4.73C18.9444 4.46333 18.8511 4.15 18.8511 3.79C18.8511 3.22333 19.0711 2.77333 19.5111 2.44C19.9578 2.10667 20.5544 1.94 21.3011 1.94C21.7944 1.94 22.2244 2.01667 22.5911 2.17C22.9644 2.31667 23.2544 2.53 23.4611 2.81C23.6678 3.09 23.7711 3.41667 23.7711 3.79C23.7711 4.15 23.6744 4.46333 23.4811 4.73C23.2878 4.99 23.0111 5.19 22.6511 5.33ZM19.5711 3.81C19.5711 4.19667 19.7244 4.50333 20.0311 4.73C20.3378 4.95667 20.7611 5.07 21.3011 5.07C21.8411 5.07 22.2644 4.95667 22.5711 4.73C22.8844 4.50333 23.0411 4.2 23.0411 3.82C23.0411 3.42667 22.8811 3.11667 22.5611 2.89C22.2478 2.66333 21.8278 2.55 21.3011 2.55C20.7678 2.55 20.3444 2.66333 20.0311 2.89C19.7244 3.11667 19.5711 3.42333 19.5711 3.81ZM21.3011 8.45C21.9211 8.45 22.4044 8.32333 22.7511 8.07C23.1044 7.81667 23.2811 7.47333 23.2811 7.04C23.2811 6.60667 23.1044 6.26667 22.7511 6.02C22.4044 5.76667 21.9211 5.64 21.3011 5.64C20.6878 5.64 20.2044 5.76667 19.8511 6.02C19.5044 6.26667 19.3311 6.60667 19.3311 7.04C19.3311 7.48 19.5044 7.82667 19.8511 8.08C20.1978 8.32667 20.6811 8.45 21.3011 8.45ZM27.918 4.81C28.378 4.81 28.7847 4.89667 29.138 5.07C29.498 5.24333 29.778 5.49 29.978 5.81C30.178 6.12333 30.278 6.49 30.278 6.91C30.278 7.33667 30.1747 7.71333 29.968 8.04C29.7614 8.36667 29.4747 8.62 29.108 8.8C28.748 8.97333 28.3414 9.06 27.888 9.06C26.9614 9.06 26.2514 8.75667 25.758 8.15C25.2647 7.53667 25.018 6.67333 25.018 5.56C25.018 4.78 25.1514 4.12 25.418 3.58C25.6847 3.04 26.058 2.63333 26.538 2.36C27.018 2.08 27.578 1.94 28.218 1.94C28.9114 1.94 29.4647 2.06667 29.878 2.32L29.588 2.9C29.2547 2.68 28.8014 2.57 28.228 2.57C27.4547 2.57 26.848 2.81667 26.408 3.31C25.968 3.79667 25.748 4.50667 25.748 5.44C25.748 5.60667 25.758 5.79667 25.778 6.01C25.9514 5.63 26.228 5.33667 26.608 5.13C26.988 4.91667 27.4247 4.81 27.918 4.81ZM27.858 8.45C28.3647 8.45 28.7747 8.31333 29.088 8.04C29.408 7.76 29.568 7.39 29.568 6.93C29.568 6.47 29.408 6.10333 29.088 5.83C28.7747 5.55667 28.348 5.42 27.808 5.42C27.4547 5.42 27.1414 5.48667 26.868 5.62C26.6014 5.75333 26.3914 5.93667 26.238 6.17C26.0847 6.40333 26.008 6.66333 26.008 6.95C26.008 7.21667 26.078 7.46333 26.218 7.69C26.3647 7.91667 26.578 8.1 26.858 8.24C27.138 8.38 27.4714 8.45 27.858 8.45ZM33.4918 5C34.2251 5.04 34.7818 5.24 35.1618 5.6C35.5485 5.95333 35.7418 6.41667 35.7418 6.99C35.7418 7.39 35.6451 7.74667 35.4518 8.06C35.2585 8.36667 34.9718 8.61 34.5918 8.79C34.2118 8.97 33.7485 9.06 33.2018 9.06C32.6951 9.06 32.2151 8.98 31.7618 8.82C31.3151 8.65333 30.9551 8.43333 30.6818 8.16L31.0318 7.59C31.2651 7.83 31.5751 8.02667 31.9618 8.18C32.3485 8.32667 32.7618 8.4 33.2018 8.4C33.7751 8.4 34.2185 8.27667 34.5318 8.03C34.8451 7.77667 35.0018 7.43 35.0018 6.99C35.0018 6.55667 34.8451 6.21667 34.5318 5.97C34.2185 5.72333 33.7451 5.6 33.1118 5.6H32.6118V5.07L34.5518 2.64H30.9718V2H35.4718V2.51L33.4918 5ZM36.8363 5.98H39.4563V6.6H36.8363V5.98ZM44.3128 9.06C43.6195 9.06 42.9928 8.90667 42.4328 8.6C41.8795 8.29333 41.4428 7.87 41.1228 7.33C40.8095 6.78333 40.6528 6.17333 40.6528 5.5C40.6528 4.82667 40.8095 4.22 41.1228 3.68C41.4428 3.13333 41.8828 2.70667 42.4428 2.4C43.0028 2.09333 43.6295 1.94 44.3228 1.94C44.8428 1.94 45.3228 2.02667 45.7628 2.2C46.2028 2.37333 46.5761 2.62667 46.8828 2.96L46.4128 3.43C45.8661 2.87667 45.1761 2.6 44.3428 2.6C43.7895 2.6 43.2861 2.72667 42.8328 2.98C42.3795 3.23333 42.0228 3.58 41.7628 4.02C41.5095 4.46 41.3828 4.95333 41.3828 5.5C41.3828 6.04667 41.5095 6.54 41.7628 6.98C42.0228 7.42 42.3795 7.76667 42.8328 8.02C43.2861 8.27333 43.7895 8.4 44.3428 8.4C45.1828 8.4 45.8728 8.12 46.4128 7.56L46.8828 8.03C46.5761 8.36333 46.1995 8.62 45.7528 8.8C45.3128 8.97333 44.8328 9.06 44.3128 9.06ZM52.8703 5.39C53.3303 5.49 53.6836 5.69 53.9303 5.99C54.1836 6.28333 54.3103 6.66333 54.3103 7.13C54.3103 7.73 54.087 8.19333 53.6403 8.52C53.2003 8.84 52.547 9 51.6803 9H48.4603V2H51.4803C52.2603 2 52.8636 2.15667 53.2903 2.47C53.7236 2.78333 53.9403 3.22667 53.9403 3.8C53.9403 4.18667 53.8436 4.51667 53.6503 4.79C53.4636 5.05667 53.2036 5.25667 52.8703 5.39ZM49.2003 2.61V5.15H51.4303C51.997 5.15 52.4336 5.04333 52.7403 4.83C53.047 4.61 53.2003 4.29333 53.2003 3.88C53.2003 3.46667 53.047 3.15333 52.7403 2.94C52.4336 2.72 51.997 2.61 51.4303 2.61H49.2003ZM51.6703 8.39C52.297 8.39 52.7703 8.28333 53.0903 8.07C53.4103 7.85667 53.5703 7.52333 53.5703 7.07C53.5703 6.19667 52.937 5.76 51.6703 5.76H49.2003V8.39H51.6703ZM55.9994 2H56.7394V9H55.9994V2Z" fill="#4B6397"/>
<path d="M22.7155 23.048C22.1608 23.048 21.6568 22.9253 21.2035 22.68C20.7555 22.4293 20.4035 22.088 20.1475 21.656C19.8968 21.224 19.7715 20.7387 19.7715 20.2C19.7715 19.6613 19.8968 19.176 20.1475 18.744C20.4035 18.312 20.7555 17.9733 21.2035 17.728C21.6568 17.4773 22.1608 17.352 22.7155 17.352C23.2701 17.352 23.7688 17.4747 24.2115 17.72C24.6595 17.9653 25.0115 18.3067 25.2675 18.744C25.5235 19.176 25.6515 19.6613 25.6515 20.2C25.6515 20.7387 25.5235 21.2267 25.2675 21.664C25.0115 22.096 24.6595 22.4347 24.2115 22.68C23.7688 22.9253 23.2701 23.048 22.7155 23.048ZM22.7155 22.52C23.1581 22.52 23.5581 22.4213 23.9155 22.224C24.2728 22.0213 24.5528 21.744 24.7555 21.392C24.9581 21.0347 25.0595 20.6373 25.0595 20.2C25.0595 19.7627 24.9581 19.368 24.7555 19.016C24.5528 18.6587 24.2728 18.3813 23.9155 18.184C23.5581 17.9813 23.1581 17.88 22.7155 17.88C22.2728 17.88 21.8701 17.9813 21.5075 18.184C21.1501 18.3813 20.8675 18.6587 20.6595 19.016C20.4568 19.368 20.3555 19.7627 20.3555 20.2C20.3555 20.6373 20.4568 21.0347 20.6595 21.392C20.8675 21.744 21.1501 22.0213 21.5075 22.224C21.8701 22.4213 22.2728 22.52 22.7155 22.52ZM29.0024 18.76C29.5304 18.76 29.9491 18.9147 30.2584 19.224C30.5731 19.528 30.7304 19.9733 30.7304 20.56V23H30.1624V20.616C30.1624 20.1787 30.0531 19.8453 29.8344 19.616C29.6157 19.3867 29.3037 19.272 28.8984 19.272C28.4451 19.272 28.0851 19.408 27.8184 19.68C27.5571 19.9467 27.4264 20.3173 27.4264 20.792V23H26.8584V17.064H27.4264V19.528C27.5811 19.2827 27.7944 19.0933 28.0664 18.96C28.3384 18.8267 28.6504 18.76 29.0024 18.76ZM32.2725 18.792H32.8405V23H32.2725V18.792ZM32.5605 17.872C32.4431 17.872 32.3445 17.832 32.2645 17.752C32.1845 17.672 32.1445 17.576 32.1445 17.464C32.1445 17.3573 32.1845 17.264 32.2645 17.184C32.3445 17.104 32.4431 17.064 32.5605 17.064C32.6778 17.064 32.7765 17.104 32.8565 17.184C32.9365 17.2587 32.9765 17.3493 32.9765 17.456C32.9765 17.5733 32.9365 17.672 32.8565 17.752C32.7765 17.832 32.6778 17.872 32.5605 17.872ZM36.1409 23.04C35.7356 23.04 35.3702 22.9493 35.0449 22.768C34.7196 22.5813 34.4636 22.3253 34.2769 22C34.0902 21.6747 33.9969 21.3067 33.9969 20.896C33.9969 20.4853 34.0902 20.1173 34.2769 19.792C34.4636 19.4667 34.7196 19.2133 35.0449 19.032C35.3702 18.8507 35.7356 18.76 36.1409 18.76C36.5462 18.76 36.9116 18.8507 37.2369 19.032C37.5622 19.2133 37.8156 19.4667 37.9969 19.792C38.1836 20.1173 38.2769 20.4853 38.2769 20.896C38.2769 21.3067 38.1836 21.6747 37.9969 22C37.8156 22.3253 37.5622 22.5813 37.2369 22.768C36.9116 22.9493 36.5462 23.04 36.1409 23.04ZM36.1409 22.536C36.4396 22.536 36.7062 22.4693 36.9409 22.336C37.1809 22.1973 37.3676 22.0027 37.5009 21.752C37.6342 21.5013 37.7009 21.216 37.7009 20.896C37.7009 20.576 37.6342 20.2907 37.5009 20.04C37.3676 19.7893 37.1809 19.5973 36.9409 19.464C36.7062 19.3253 36.4396 19.256 36.1409 19.256C35.8422 19.256 35.5729 19.3253 35.3329 19.464C35.0982 19.5973 34.9116 19.7893 34.7729 20.04C34.6396 20.2907 34.5729 20.576 34.5729 20.896C34.5729 21.216 34.6396 21.5013 34.7729 21.752C34.9116 22.0027 35.0982 22.1973 35.3329 22.336C35.5729 22.4693 35.8422 22.536 36.1409 22.536Z" fill="#4B6397"/>
<path d="M33.5 39.4L24.5 34.21" stroke="white" stroke-width="2" stroke-linecap="round" stroke-linejoin="round"/>
<path d="M38 46V38C37.9996 37.6493 37.9071 37.3048 37.7315 37.0012C37.556 36.6975 37.3037 36.4454 37 36.27L30 32.27C29.696 32.0945 29.3511 32.002 29 32.002C28.6489 32.002 28.304 32.0945 28 32.27L21 36.27C20.6963 36.4454 20.444 36.6975 20.2685 37.0012C20.0929 37.3048 20.0004 37.6493 20 38V46C20.0004 46.3507 20.0929 46.6952 20.2685 46.9988C20.444 47.3025 20.6963 47.5546 21 47.73L28 51.73C28.304 51.9055 28.6489 51.9979 29 51.9979C29.3511 51.9979 29.696 51.9055 30 51.73L37 47.73C37.3037 47.5546 37.556 47.3025 37.7315 46.9988C37.9071 46.6952 37.9996 46.3507 38 46Z" stroke="white" stroke-width="2" stroke-linecap="round" stroke-linejoin="round"/>
<path d="M20.27 36.96L29 42.01L37.73 36.96" stroke="white" stroke-width="2" stroke-linecap="round" stroke-linejoin="round"/>
<path d="M29 52.08V42" stroke="white" stroke-width="2" stroke-linecap="round" stroke-linejoin="round"/>
</svg>
