<svg width="1342" height="641" viewBox="0 0 1342 641" fill="none" xmlns="http://www.w3.org/2000/svg">
<path d="M60 440C60 456.569 46.5685 470 30 470C13.4315 470 0 456.569 0 440C0 423.431 13.4315 410 30 410C46.5685 410 60 423.431 60 440ZM5.46465 440C5.46465 453.55 16.4495 464.535 30 464.535C43.5505 464.535 54.5353 453.55 54.5353 440C54.5353 426.45 43.5505 415.465 30 415.465C16.4495 415.465 5.46465 426.45 5.46465 440Z" fill="#0C9FB3"/>
<path d="M683 23.5C683 36.4787 672.479 47 659.5 47C646.521 47 636 36.4787 636 23.5C636 10.5213 646.521 0 659.5 0C672.479 0 683 10.5213 683 23.5ZM640.281 23.5C640.281 34.1146 648.885 42.7194 659.5 42.7194C670.115 42.7194 678.719 34.1146 678.719 23.5C678.719 12.8854 670.115 4.28065 659.5 4.28065C648.885 4.28065 640.281 12.8854 640.281 23.5Z" fill="#0C9FB3"/>
<path d="M492 617.5C492 630.479 481.479 641 468.5 641C455.521 641 445 630.479 445 617.5C445 604.521 455.521 594 468.5 594C481.479 594 492 604.521 492 617.5ZM449.281 617.5C449.281 628.115 457.885 636.719 468.5 636.719C479.115 636.719 487.719 628.115 487.719 617.5C487.719 606.885 479.115 598.281 468.5 598.281C457.885 598.281 449.281 606.885 449.281 617.5Z" fill="#0C9FB3"/>
<g style="mix-blend-mode:hard-light">
<path d="M1342 121C1342 137.569 1328.57 151 1312 151C1295.43 151 1282 137.569 1282 121C1282 104.431 1295.43 91 1312 91C1328.57 91 1342 104.431 1342 121ZM1286.07 121C1286.07 135.319 1297.68 146.927 1312 146.927C1326.32 146.927 1337.93 135.319 1337.93 121C1337.93 106.681 1326.32 95.0731 1312 95.0731C1297.68 95.0731 1286.07 106.681 1286.07 121Z" fill="#0C9FB3"/>
</g>
</svg>
