<svg width="54" height="54" viewBox="0 0 54 54" fill="none" xmlns="http://www.w3.org/2000/svg">
<path d="M3.91918 2C4.81251 2 5.51251 2.21333 6.01918 2.64C6.52585 3.06667 6.77918 3.65333 6.77918 4.4C6.77918 5.14667 6.52585 5.73333 6.01918 6.16C5.51251 6.58 4.81251 6.79 3.91918 6.79H2.03918V9H1.29918V2H3.91918ZM3.89918 6.14C4.59251 6.14 5.12251 5.99 5.48918 5.69C5.85585 5.38333 6.03918 4.95333 6.03918 4.4C6.03918 3.83333 5.85585 3.4 5.48918 3.1C5.12251 2.79333 4.59251 2.64 3.89918 2.64H2.03918V6.14H3.89918ZM10.5493 5.71L9.11926 7.16V9H8.37926V2H9.11926V6.23L13.2293 2H14.0793L11.0493 5.17L14.2893 9H13.4093L10.5493 5.71ZM18.6638 5.33C19.1038 5.47667 19.4405 5.69667 19.6738 5.99C19.9138 6.28333 20.0338 6.63667 20.0338 7.05C20.0338 7.45667 19.9238 7.81333 19.7038 8.12C19.4838 8.42 19.1671 8.65333 18.7538 8.82C18.3471 8.98 17.8671 9.06 17.3138 9.06C16.4738 9.06 15.8138 8.88 15.3338 8.52C14.8538 8.16 14.6138 7.67 14.6138 7.05C14.6138 6.63 14.7271 6.27667 14.9538 5.99C15.1871 5.69667 15.5238 5.47667 15.9638 5.33C15.6038 5.19 15.3305 4.99 15.1438 4.73C14.9571 4.46333 14.8638 4.15 14.8638 3.79C14.8638 3.22333 15.0838 2.77333 15.5238 2.44C15.9705 2.10667 16.5671 1.94 17.3138 1.94C17.8071 1.94 18.2371 2.01667 18.6038 2.17C18.9771 2.31667 19.2671 2.53 19.4738 2.81C19.6805 3.09 19.7838 3.41667 19.7838 3.79C19.7838 4.15 19.6871 4.46333 19.4938 4.73C19.3005 4.99 19.0238 5.19 18.6638 5.33ZM15.5838 3.81C15.5838 4.19667 15.7371 4.50333 16.0438 4.73C16.3505 4.95667 16.7738 5.07 17.3138 5.07C17.8538 5.07 18.2771 4.95667 18.5838 4.73C18.8971 4.50333 19.0538 4.2 19.0538 3.82C19.0538 3.42667 18.8938 3.11667 18.5738 2.89C18.2605 2.66333 17.8405 2.55 17.3138 2.55C16.7805 2.55 16.3571 2.66333 16.0438 2.89C15.7371 3.11667 15.5838 3.42333 15.5838 3.81ZM17.3138 8.45C17.9338 8.45 18.4171 8.32333 18.7638 8.07C19.1171 7.81667 19.2938 7.47333 19.2938 7.04C19.2938 6.60667 19.1171 6.26667 18.7638 6.02C18.4171 5.76667 17.9338 5.64 17.3138 5.64C16.7005 5.64 16.2171 5.76667 15.8638 6.02C15.5171 6.26667 15.3438 6.60667 15.3438 7.04C15.3438 7.48 15.5171 7.82667 15.8638 8.08C16.2105 8.32667 16.6938 8.45 17.3138 8.45ZM23.2107 1.94C24.1374 1.94 24.8474 2.24667 25.3407 2.86C25.8341 3.46667 26.0807 4.32667 26.0807 5.44C26.0807 6.22 25.9474 6.88 25.6807 7.42C25.4141 7.96 25.0407 8.37 24.5607 8.65C24.0807 8.92333 23.5207 9.06 22.8807 9.06C22.1874 9.06 21.6341 8.93333 21.2207 8.68L21.5107 8.1C21.8441 8.32 22.2974 8.43 22.8707 8.43C23.6441 8.43 24.2507 8.18667 24.6907 7.7C25.1307 7.20667 25.3507 6.49333 25.3507 5.56C25.3507 5.38667 25.3407 5.19667 25.3207 4.99C25.1474 5.37 24.8707 5.66667 24.4907 5.88C24.1107 6.08667 23.6741 6.19 23.1807 6.19C22.7207 6.19 22.3107 6.10333 21.9507 5.93C21.5974 5.75667 21.3207 5.51333 21.1207 5.2C20.9207 4.88 20.8207 4.51 20.8207 4.09C20.8207 3.66333 20.9241 3.28667 21.1307 2.96C21.3374 2.63333 21.6207 2.38333 21.9807 2.21C22.3474 2.03 22.7574 1.94 23.2107 1.94ZM23.2907 5.58C23.6441 5.58 23.9541 5.51333 24.2207 5.38C24.4941 5.24667 24.7074 5.06333 24.8607 4.83C25.0141 4.59667 25.0907 4.33667 25.0907 4.05C25.0907 3.78333 25.0174 3.53667 24.8707 3.31C24.7307 3.08333 24.5207 2.9 24.2407 2.76C23.9607 2.62 23.6274 2.55 23.2407 2.55C22.7341 2.55 22.3207 2.69 22.0007 2.97C21.6874 3.24333 21.5307 3.61 21.5307 4.07C21.5307 4.53 21.6874 4.89667 22.0007 5.17C22.3207 5.44333 22.7507 5.58 23.2907 5.58ZM33.0745 7.16H31.6745V9H30.9545V7.16H27.0045V6.64L30.7145 2H31.5145L27.9345 6.52H30.9745V4.9H31.6745V6.52H33.0745V7.16ZM33.9135 5.98H36.5335V6.6H33.9135V5.98ZM42.4958 9L40.2358 5.92L37.9858 9H37.1358L39.7958 5.4L37.3058 2H38.1558L40.2658 4.86L42.3658 2H43.1658L40.6858 5.38L43.3558 9H42.4958ZM48.8342 5.39C49.2942 5.49 49.6475 5.69 49.8942 5.99C50.1475 6.28333 50.2742 6.66333 50.2742 7.13C50.2742 7.73 50.0508 8.19333 49.6042 8.52C49.1642 8.84 48.5108 9 47.6442 9H44.4242V2H47.4442C48.2242 2 48.8275 2.15667 49.2542 2.47C49.6875 2.78333 49.9042 3.22667 49.9042 3.8C49.9042 4.18667 49.8075 4.51667 49.6142 4.79C49.4275 5.05667 49.1675 5.25667 48.8342 5.39ZM45.1642 2.61V5.15H47.3942C47.9608 5.15 48.3975 5.04333 48.7042 4.83C49.0108 4.61 49.1642 4.29333 49.1642 3.88C49.1642 3.46667 49.0108 3.15333 48.7042 2.94C48.3975 2.72 47.9608 2.61 47.3942 2.61H45.1642ZM47.6342 8.39C48.2608 8.39 48.7342 8.28333 49.0542 8.07C49.3742 7.85667 49.5342 7.52333 49.5342 7.07C49.5342 6.19667 48.9008 5.76 47.6342 5.76H45.1642V8.39H47.6342ZM51.9632 2H52.7032V9H51.9632V2Z" fill="#4B6397"/>
<path d="M20.2307 17.4C20.9453 17.4 21.5053 17.5707 21.9107 17.912C22.316 18.2533 22.5187 18.7227 22.5187 19.32C22.5187 19.9173 22.316 20.3867 21.9107 20.728C21.5053 21.064 20.9453 21.232 20.2307 21.232H18.7267V23H18.1347V17.4H20.2307ZM20.2147 20.712C20.7693 20.712 21.1933 20.592 21.4867 20.352C21.78 20.1067 21.9267 19.7627 21.9267 19.32C21.9267 18.8667 21.78 18.52 21.4867 18.28C21.1933 18.0347 20.7693 17.912 20.2147 17.912H18.7267V20.712H20.2147ZM25.1117 18.76C25.661 18.76 26.0823 18.8987 26.3757 19.176C26.669 19.448 26.8157 19.8533 26.8157 20.392V23H26.2717V22.344C26.1437 22.5627 25.9543 22.7333 25.7037 22.856C25.4583 22.9787 25.165 23.04 24.8237 23.04C24.3543 23.04 23.981 22.928 23.7037 22.704C23.4263 22.48 23.2877 22.184 23.2877 21.816C23.2877 21.4587 23.4157 21.1707 23.6717 20.952C23.933 20.7333 24.3463 20.624 24.9117 20.624H26.2477V20.368C26.2477 20.0053 26.1463 19.7307 25.9437 19.544C25.741 19.352 25.445 19.256 25.0557 19.256C24.789 19.256 24.533 19.3013 24.2877 19.392C24.0423 19.4773 23.8317 19.5973 23.6557 19.752L23.3997 19.328C23.613 19.1467 23.869 19.008 24.1677 18.912C24.4663 18.8107 24.781 18.76 25.1117 18.76ZM24.9117 22.592C25.2317 22.592 25.5063 22.52 25.7357 22.376C25.965 22.2267 26.1357 22.0133 26.2477 21.736V21.048H24.9277C24.2077 21.048 23.8477 21.2987 23.8477 21.8C23.8477 22.0453 23.941 22.24 24.1277 22.384C24.3143 22.5227 24.5757 22.592 24.9117 22.592ZM28.9024 19.616C29.0357 19.3333 29.2331 19.12 29.4944 18.976C29.7611 18.832 30.0891 18.76 30.4784 18.76V19.312L30.3424 19.304C29.8997 19.304 29.5531 19.44 29.3024 19.712C29.0517 19.984 28.9264 20.3653 28.9264 20.856V23H28.3584V18.792H28.9024V19.616ZM31.5068 18.792H32.0748V23H31.5068V18.792ZM31.7948 17.872C31.6775 17.872 31.5788 17.832 31.4988 17.752C31.4188 17.672 31.3788 17.576 31.3788 17.464C31.3788 17.3573 31.4188 17.264 31.4988 17.184C31.5788 17.104 31.6775 17.064 31.7948 17.064C31.9122 17.064 32.0108 17.104 32.0908 17.184C32.1708 17.2587 32.2108 17.3493 32.2108 17.456C32.2108 17.5733 32.1708 17.672 32.0908 17.752C32.0108 17.832 31.9122 17.872 31.7948 17.872ZM34.7833 23.04C34.4419 23.04 34.1139 22.992 33.7993 22.896C33.4899 22.7947 33.2473 22.6693 33.0713 22.52L33.3273 22.072C33.5033 22.2107 33.7246 22.3253 33.9913 22.416C34.2579 22.5013 34.5353 22.544 34.8233 22.544C35.2073 22.544 35.4899 22.4853 35.6713 22.368C35.8579 22.2453 35.9513 22.0747 35.9513 21.856C35.9513 21.7013 35.9006 21.5813 35.7993 21.496C35.6979 21.4053 35.5699 21.3387 35.4153 21.296C35.2606 21.248 35.0553 21.2027 34.7993 21.16C34.4579 21.096 34.1833 21.032 33.9753 20.968C33.7673 20.8987 33.5886 20.784 33.4393 20.624C33.2953 20.464 33.2233 20.2427 33.2233 19.96C33.2233 19.608 33.3699 19.32 33.6633 19.096C33.9566 18.872 34.3646 18.76 34.8873 18.76C35.1593 18.76 35.4313 18.7973 35.7033 18.872C35.9753 18.9413 36.1993 19.0347 36.3753 19.152L36.1273 19.608C35.7806 19.368 35.3673 19.248 34.8873 19.248C34.5246 19.248 34.2499 19.312 34.0633 19.44C33.8819 19.568 33.7913 19.736 33.7913 19.944C33.7913 20.104 33.8419 20.232 33.9433 20.328C34.0499 20.424 34.1806 20.496 34.3353 20.544C34.4899 20.5867 34.7033 20.632 34.9753 20.68C35.3113 20.744 35.5806 20.808 35.7833 20.872C35.9859 20.936 36.1593 21.0453 36.3033 21.2C36.4473 21.3547 36.5193 21.568 36.5193 21.84C36.5193 22.208 36.3646 22.5013 36.0553 22.72C35.7513 22.9333 35.3273 23.04 34.7833 23.04Z" fill="#4B6397"/>
<path d="M31.5 39.4L22.5 34.21" stroke="white" stroke-width="2" stroke-linecap="round" stroke-linejoin="round"/>
<path d="M36 46V38C35.9996 37.6493 35.9071 37.3048 35.7315 37.0012C35.556 36.6975 35.3037 36.4454 35 36.27L28 32.27C27.696 32.0945 27.3511 32.002 27 32.002C26.6489 32.002 26.304 32.0945 26 32.27L19 36.27C18.6963 36.4454 18.444 36.6975 18.2685 37.0012C18.0929 37.3048 18.0004 37.6493 18 38V46C18.0004 46.3507 18.0929 46.6952 18.2685 46.9988C18.444 47.3025 18.6963 47.5546 19 47.73L26 51.73C26.304 51.9055 26.6489 51.9979 27 51.9979C27.3511 51.9979 27.696 51.9055 28 51.73L35 47.73C35.3037 47.5546 35.556 47.3025 35.7315 46.9988C35.9071 46.6952 35.9996 46.3507 36 46Z" stroke="white" stroke-width="2" stroke-linecap="round" stroke-linejoin="round"/>
<path d="M18.27 36.96L27 42.01L35.73 36.96" stroke="white" stroke-width="2" stroke-linecap="round" stroke-linejoin="round"/>
<path d="M27 52.08V42" stroke="white" stroke-width="2" stroke-linecap="round" stroke-linejoin="round"/>
</svg>
